<mxfile host="Electron" agent="Mozilla/5.0 (X11; Linux x86_64) AppleWebKit/537.36 (KHTML, like Gecko) draw.io/24.7.8 Chrome/128.0.6613.36 Electron/32.0.1 Safari/537.36" version="24.7.8">
  <diagram name="Page-1" id="vYNAJDgBtWNbmizfoG2e">
    <mxGraphModel dx="1394" dy="830" grid="1" gridSize="10" guides="1" tooltips="1" connect="1" arrows="1" fold="1" page="1" pageScale="1" pageWidth="850" pageHeight="1100" math="0" shadow="0">
      <root>
        <mxCell id="0" />
        <mxCell id="1" parent="0" />
        <mxCell id="R9GI2_ILGLaMjwJ2jTvt-8" style="edgeStyle=orthogonalEdgeStyle;rounded=0;orthogonalLoop=1;jettySize=auto;html=1;exitX=1;exitY=0.5;exitDx=0;exitDy=0;entryX=0;entryY=0.5;entryDx=0;entryDy=0;fillColor=#ffe6cc;strokeColor=#d79b00;" edge="1" parent="1" source="R9GI2_ILGLaMjwJ2jTvt-1" target="R9GI2_ILGLaMjwJ2jTvt-2">
          <mxGeometry relative="1" as="geometry" />
        </mxCell>
        <mxCell id="R9GI2_ILGLaMjwJ2jTvt-1" value="Start" style="ellipse;whiteSpace=wrap;html=1;aspect=fixed;fillColor=#ffe6cc;strokeColor=#d79b00;" vertex="1" parent="1">
          <mxGeometry x="80" y="360" width="80" height="80" as="geometry" />
        </mxCell>
        <mxCell id="R9GI2_ILGLaMjwJ2jTvt-10" style="edgeStyle=orthogonalEdgeStyle;rounded=0;orthogonalLoop=1;jettySize=auto;html=1;exitX=1;exitY=0.5;exitDx=0;exitDy=0;entryX=0.75;entryY=0;entryDx=0;entryDy=0;fillColor=#ffe6cc;strokeColor=#d79b00;" edge="1" parent="1" source="R9GI2_ILGLaMjwJ2jTvt-2" target="R9GI2_ILGLaMjwJ2jTvt-3">
          <mxGeometry relative="1" as="geometry">
            <Array as="points">
              <mxPoint x="380" y="260" />
              <mxPoint x="380" y="350" />
              <mxPoint x="330" y="350" />
            </Array>
          </mxGeometry>
        </mxCell>
        <mxCell id="R9GI2_ILGLaMjwJ2jTvt-2" value="Configure Solid" style="rounded=0;whiteSpace=wrap;html=1;fillColor=#ffe6cc;strokeColor=#d79b00;" vertex="1" parent="1">
          <mxGeometry x="240" y="230" width="120" height="60" as="geometry" />
        </mxCell>
        <mxCell id="R9GI2_ILGLaMjwJ2jTvt-11" style="edgeStyle=orthogonalEdgeStyle;rounded=0;orthogonalLoop=1;jettySize=auto;html=1;exitX=1;exitY=0.5;exitDx=0;exitDy=0;entryX=0.75;entryY=0;entryDx=0;entryDy=0;fillColor=#ffe6cc;strokeColor=#d79b00;" edge="1" parent="1" source="R9GI2_ILGLaMjwJ2jTvt-3" target="R9GI2_ILGLaMjwJ2jTvt-4">
          <mxGeometry relative="1" as="geometry">
            <Array as="points">
              <mxPoint x="380" y="400" />
              <mxPoint x="380" y="510" />
              <mxPoint x="330" y="510" />
            </Array>
          </mxGeometry>
        </mxCell>
        <mxCell id="R9GI2_ILGLaMjwJ2jTvt-3" value="Configure Fluid" style="rounded=0;whiteSpace=wrap;html=1;fillColor=#ffe6cc;strokeColor=#d79b00;" vertex="1" parent="1">
          <mxGeometry x="240" y="370" width="120" height="60" as="geometry" />
        </mxCell>
        <mxCell id="R9GI2_ILGLaMjwJ2jTvt-12" style="edgeStyle=orthogonalEdgeStyle;rounded=0;orthogonalLoop=1;jettySize=auto;html=1;exitX=1;exitY=0.5;exitDx=0;exitDy=0;entryX=0;entryY=0.5;entryDx=0;entryDy=0;fillColor=#ffe6cc;strokeColor=#d79b00;" edge="1" parent="1" source="R9GI2_ILGLaMjwJ2jTvt-4" target="R9GI2_ILGLaMjwJ2jTvt-5">
          <mxGeometry relative="1" as="geometry" />
        </mxCell>
        <mxCell id="R9GI2_ILGLaMjwJ2jTvt-4" value="Configure preCICE" style="rounded=0;whiteSpace=wrap;html=1;fillColor=#ffe6cc;strokeColor=#d79b00;" vertex="1" parent="1">
          <mxGeometry x="240" y="530" width="120" height="60" as="geometry" />
        </mxCell>
        <mxCell id="R9GI2_ILGLaMjwJ2jTvt-13" style="edgeStyle=orthogonalEdgeStyle;rounded=0;orthogonalLoop=1;jettySize=auto;html=1;exitX=1;exitY=0.5;exitDx=0;exitDy=0;entryX=0;entryY=0.5;entryDx=0;entryDy=0;fillColor=#ffe6cc;strokeColor=#d79b00;" edge="1" parent="1" source="R9GI2_ILGLaMjwJ2jTvt-5" target="R9GI2_ILGLaMjwJ2jTvt-6">
          <mxGeometry relative="1" as="geometry" />
        </mxCell>
        <mxCell id="R9GI2_ILGLaMjwJ2jTvt-5" value="Run" style="rounded=0;whiteSpace=wrap;html=1;fillColor=#ffe6cc;strokeColor=#d79b00;" vertex="1" parent="1">
          <mxGeometry x="430" y="370" width="120" height="60" as="geometry" />
        </mxCell>
        <mxCell id="R9GI2_ILGLaMjwJ2jTvt-14" style="edgeStyle=orthogonalEdgeStyle;rounded=0;orthogonalLoop=1;jettySize=auto;html=1;exitX=1;exitY=0.5;exitDx=0;exitDy=0;entryX=0;entryY=0.5;entryDx=0;entryDy=0;fillColor=#ffe6cc;strokeColor=#d79b00;" edge="1" parent="1" source="R9GI2_ILGLaMjwJ2jTvt-6" target="R9GI2_ILGLaMjwJ2jTvt-7">
          <mxGeometry relative="1" as="geometry" />
        </mxCell>
        <mxCell id="R9GI2_ILGLaMjwJ2jTvt-6" value="Analyze" style="rounded=0;whiteSpace=wrap;html=1;fillColor=#ffe6cc;strokeColor=#d79b00;" vertex="1" parent="1">
          <mxGeometry x="620" y="370" width="120" height="60" as="geometry" />
        </mxCell>
        <mxCell id="R9GI2_ILGLaMjwJ2jTvt-7" value="Celebrate!" style="ellipse;whiteSpace=wrap;html=1;aspect=fixed;fillColor=#ffe6cc;strokeColor=#d79b00;" vertex="1" parent="1">
          <mxGeometry x="810" y="360" width="80" height="80" as="geometry" />
        </mxCell>
        <mxCell id="R9GI2_ILGLaMjwJ2jTvt-15" value="Fluid and solid meshes" style="text;html=1;align=left;verticalAlign=top;whiteSpace=wrap;rounded=0;" vertex="1" parent="1">
          <mxGeometry x="80" y="450" width="130" height="30" as="geometry" />
        </mxCell>
        <mxCell id="R9GI2_ILGLaMjwJ2jTvt-17" value="solidModel.inp&lt;div&gt;config.yml&lt;/div&gt;" style="text;html=1;align=left;verticalAlign=top;whiteSpace=wrap;rounded=0;" vertex="1" parent="1">
          <mxGeometry x="240" y="290" width="130" height="30" as="geometry" />
        </mxCell>
        <mxCell id="R9GI2_ILGLaMjwJ2jTvt-18" value="dynamicMeshDict&lt;div&gt;changeDictionaryDict&lt;/div&gt;&lt;div&gt;controlDict&lt;/div&gt;&lt;div&gt;preciceDict&lt;/div&gt;" style="text;html=1;align=left;verticalAlign=top;whiteSpace=wrap;rounded=0;" vertex="1" parent="1">
          <mxGeometry x="240" y="430" width="130" height="70" as="geometry" />
        </mxCell>
        <mxCell id="R9GI2_ILGLaMjwJ2jTvt-19" value="precice-config.xml" style="text;html=1;align=left;verticalAlign=top;whiteSpace=wrap;rounded=0;" vertex="1" parent="1">
          <mxGeometry x="240" y="590" width="130" height="30" as="geometry" />
        </mxCell>
        <mxCell id="R9GI2_ILGLaMjwJ2jTvt-20" value="cd Solid &amp;amp;&amp;amp; ./run.sh&lt;div&gt;cd Fluid &amp;amp;&amp;amp; ./run.sh&lt;/div&gt;" style="text;html=1;align=left;verticalAlign=top;whiteSpace=wrap;rounded=0;" vertex="1" parent="1">
          <mxGeometry x="430" y="430" width="130" height="70" as="geometry" />
        </mxCell>
        <mxCell id="R9GI2_ILGLaMjwJ2jTvt-21" value="convert2vtu.py&lt;div&gt;ParaView&lt;/div&gt;" style="text;html=1;align=left;verticalAlign=top;whiteSpace=wrap;rounded=0;" vertex="1" parent="1">
          <mxGeometry x="620" y="430" width="130" height="70" as="geometry" />
        </mxCell>
      </root>
    </mxGraphModel>
  </diagram>
</mxfile>
